<mxfile host="app.diagrams.net" agent="Mozilla/5.0 (Windows NT 10.0; Win64; x64) AppleWebKit/537.36 (KHTML, like Gecko) Chrome/141.0.0.0 Safari/537.36" version="28.2.7">
  <diagram name="Страница — 1" id="kx2ZsEMXBzvCgO4WzWgC">
    <mxGraphModel dx="3290" dy="2325" grid="1" gridSize="10" guides="1" tooltips="1" connect="1" arrows="1" fold="1" page="1" pageScale="1" pageWidth="827" pageHeight="1169" math="0" shadow="0">
      <root>
        <mxCell id="0" />
        <mxCell id="1" parent="0" />
        <mxCell id="380pyfvnN0EU_XqH2vTF-1" value="" style="rounded=0;whiteSpace=wrap;html=1;" vertex="1" parent="1">
          <mxGeometry width="830" height="50" as="geometry" />
        </mxCell>
        <mxCell id="380pyfvnN0EU_XqH2vTF-2" value="" style="rounded=1;whiteSpace=wrap;html=1;" vertex="1" parent="1">
          <mxGeometry x="10" y="10" width="70" height="30" as="geometry" />
        </mxCell>
        <mxCell id="380pyfvnN0EU_XqH2vTF-3" value="" style="rounded=1;whiteSpace=wrap;html=1;" vertex="1" parent="1">
          <mxGeometry x="90" y="10" width="70" height="30" as="geometry" />
        </mxCell>
        <mxCell id="380pyfvnN0EU_XqH2vTF-4" value="Вход/регистрация" style="text;html=1;whiteSpace=wrap;strokeColor=none;fillColor=none;align=center;verticalAlign=middle;rounded=0;" vertex="1" parent="1">
          <mxGeometry x="750" y="10" width="70" height="30" as="geometry" />
        </mxCell>
        <mxCell id="380pyfvnN0EU_XqH2vTF-5" value="" style="rounded=0;whiteSpace=wrap;html=1;" vertex="1" parent="1">
          <mxGeometry x="827" width="830" height="50" as="geometry" />
        </mxCell>
        <mxCell id="380pyfvnN0EU_XqH2vTF-6" value="" style="rounded=1;whiteSpace=wrap;html=1;" vertex="1" parent="1">
          <mxGeometry x="837" y="10" width="70" height="30" as="geometry" />
        </mxCell>
        <mxCell id="380pyfvnN0EU_XqH2vTF-7" value="" style="rounded=1;whiteSpace=wrap;html=1;" vertex="1" parent="1">
          <mxGeometry x="917" y="10" width="70" height="30" as="geometry" />
        </mxCell>
        <mxCell id="380pyfvnN0EU_XqH2vTF-8" value="Вход/регистрация" style="text;html=1;whiteSpace=wrap;strokeColor=none;fillColor=none;align=center;verticalAlign=middle;rounded=0;" vertex="1" parent="1">
          <mxGeometry x="1577" y="10" width="70" height="30" as="geometry" />
        </mxCell>
        <mxCell id="380pyfvnN0EU_XqH2vTF-9" value="" style="rounded=0;whiteSpace=wrap;html=1;" vertex="1" parent="1">
          <mxGeometry x="1654" width="830" height="50" as="geometry" />
        </mxCell>
        <mxCell id="380pyfvnN0EU_XqH2vTF-10" value="" style="rounded=1;whiteSpace=wrap;html=1;" vertex="1" parent="1">
          <mxGeometry x="1664" y="10" width="70" height="30" as="geometry" />
        </mxCell>
        <mxCell id="380pyfvnN0EU_XqH2vTF-11" value="" style="rounded=1;whiteSpace=wrap;html=1;" vertex="1" parent="1">
          <mxGeometry x="1744" y="10" width="70" height="30" as="geometry" />
        </mxCell>
        <mxCell id="380pyfvnN0EU_XqH2vTF-12" value="Вход/регистрация" style="text;html=1;whiteSpace=wrap;strokeColor=none;fillColor=none;align=center;verticalAlign=middle;rounded=0;" vertex="1" parent="1">
          <mxGeometry x="2404" y="10" width="70" height="30" as="geometry" />
        </mxCell>
        <mxCell id="380pyfvnN0EU_XqH2vTF-13" value="" style="rounded=0;whiteSpace=wrap;html=1;" vertex="1" parent="1">
          <mxGeometry x="2484" width="830" height="50" as="geometry" />
        </mxCell>
        <mxCell id="380pyfvnN0EU_XqH2vTF-14" value="" style="rounded=1;whiteSpace=wrap;html=1;" vertex="1" parent="1">
          <mxGeometry x="2494" y="10" width="70" height="30" as="geometry" />
        </mxCell>
        <mxCell id="380pyfvnN0EU_XqH2vTF-15" value="" style="rounded=1;whiteSpace=wrap;html=1;" vertex="1" parent="1">
          <mxGeometry x="2574" y="10" width="70" height="30" as="geometry" />
        </mxCell>
        <mxCell id="380pyfvnN0EU_XqH2vTF-16" value="Вход/регистрация" style="text;html=1;whiteSpace=wrap;strokeColor=none;fillColor=none;align=center;verticalAlign=middle;rounded=0;" vertex="1" parent="1">
          <mxGeometry x="3234" y="10" width="70" height="30" as="geometry" />
        </mxCell>
        <mxCell id="380pyfvnN0EU_XqH2vTF-17" value="" style="verticalLabelPosition=bottom;verticalAlign=top;html=1;shape=mxgraph.basic.smiley" vertex="1" parent="1">
          <mxGeometry x="30" y="585" width="270" height="270" as="geometry" />
        </mxCell>
        <mxCell id="380pyfvnN0EU_XqH2vTF-18" value="" style="verticalLabelPosition=bottom;verticalAlign=top;html=1;shape=mxgraph.basic.patternFillRect;fillStyle=diagRev;step=5;fillStrokeWidth=0.2;fillStrokeColor=#dddddd;" vertex="1" parent="1">
          <mxGeometry y="50" width="830" height="510" as="geometry" />
        </mxCell>
        <mxCell id="380pyfvnN0EU_XqH2vTF-19" value="&lt;h1 style=&quot;margin-top: 0px;&quot;&gt;Heading&lt;/h1&gt;&lt;p&gt;Lorem ipsum dolor sit amet, consectetur adipisicing elit, sed do eiusmod tempor incididunt ut labore et dolore magna aliqua.&lt;/p&gt;" style="text;html=1;whiteSpace=wrap;overflow=hidden;rounded=0;" vertex="1" parent="1">
          <mxGeometry x="340" y="600" width="370" height="220" as="geometry" />
        </mxCell>
        <mxCell id="380pyfvnN0EU_XqH2vTF-20" value="Text" style="text;html=1;whiteSpace=wrap;strokeColor=none;fillColor=none;align=center;verticalAlign=middle;rounded=0;strokeWidth=1;fontSize=81;" vertex="1" parent="1">
          <mxGeometry x="170" y="100" width="480" height="250" as="geometry" />
        </mxCell>
        <mxCell id="380pyfvnN0EU_XqH2vTF-21" value="Text" style="text;html=1;whiteSpace=wrap;strokeColor=none;fillColor=none;align=center;verticalAlign=middle;rounded=0;fontSize=30;" vertex="1" parent="1">
          <mxGeometry x="150" y="350" width="540" height="60" as="geometry" />
        </mxCell>
        <mxCell id="380pyfvnN0EU_XqH2vTF-22" value="" style="rounded=0;whiteSpace=wrap;html=1;" vertex="1" parent="1">
          <mxGeometry x="420" y="855" width="390" height="250" as="geometry" />
        </mxCell>
        <mxCell id="380pyfvnN0EU_XqH2vTF-23" value="&lt;h1 style=&quot;margin-top: 0px;&quot;&gt;Heading&lt;/h1&gt;&lt;p&gt;Lorem ipsum dolor sit amet, consectetur adipisicing elit, sed do eiusmod tempor incididunt ut labore et dolore magna aliqua.&lt;/p&gt;" style="text;html=1;whiteSpace=wrap;overflow=hidden;rounded=0;" vertex="1" parent="1">
          <mxGeometry x="50" y="910" width="350" height="220" as="geometry" />
        </mxCell>
        <mxCell id="380pyfvnN0EU_XqH2vTF-26" value="" style="verticalLabelPosition=bottom;verticalAlign=top;html=1;shape=mxgraph.basic.diag_round_rect;dx=6;whiteSpace=wrap;" vertex="1" parent="1">
          <mxGeometry x="40" y="1169" width="220" height="321" as="geometry" />
        </mxCell>
        <mxCell id="380pyfvnN0EU_XqH2vTF-29" value="" style="ellipse;whiteSpace=wrap;html=1;aspect=fixed;" vertex="1" parent="1">
          <mxGeometry x="50" y="1180" width="50" height="50" as="geometry" />
        </mxCell>
        <mxCell id="380pyfvnN0EU_XqH2vTF-30" value="Text" style="text;html=1;whiteSpace=wrap;strokeColor=none;fillColor=none;align=right;verticalAlign=middle;rounded=0;fontSize=30;labelPosition=left;verticalLabelPosition=middle;" vertex="1" parent="1">
          <mxGeometry x="170" y="1180" width="70" height="50" as="geometry" />
        </mxCell>
        <mxCell id="380pyfvnN0EU_XqH2vTF-31" value="&lt;h1 style=&quot;margin-top: 0px;&quot;&gt;Heading&lt;/h1&gt;&lt;p&gt;Lorem ipsum dolor sit amet, consectetur adipisicing elit, sed do eiusmod tempor incididunt ut labore et dolore magna aliqua.&lt;/p&gt;" style="text;html=1;whiteSpace=wrap;overflow=hidden;rounded=0;" vertex="1" parent="1">
          <mxGeometry x="50" y="1250" width="200" height="220" as="geometry" />
        </mxCell>
        <mxCell id="380pyfvnN0EU_XqH2vTF-32" value="" style="verticalLabelPosition=bottom;verticalAlign=top;html=1;shape=mxgraph.basic.diag_round_rect;dx=6;whiteSpace=wrap;" vertex="1" parent="1">
          <mxGeometry x="304" y="1169" width="220" height="321" as="geometry" />
        </mxCell>
        <mxCell id="380pyfvnN0EU_XqH2vTF-33" value="" style="ellipse;whiteSpace=wrap;html=1;aspect=fixed;" vertex="1" parent="1">
          <mxGeometry x="320" y="1180" width="50" height="50" as="geometry" />
        </mxCell>
        <mxCell id="380pyfvnN0EU_XqH2vTF-34" value="Text" style="text;html=1;whiteSpace=wrap;strokeColor=none;fillColor=none;align=right;verticalAlign=middle;rounded=0;fontSize=30;labelPosition=left;verticalLabelPosition=middle;" vertex="1" parent="1">
          <mxGeometry x="440" y="1180" width="70" height="50" as="geometry" />
        </mxCell>
        <mxCell id="380pyfvnN0EU_XqH2vTF-35" value="&lt;h1 style=&quot;margin-top: 0px;&quot;&gt;Heading&lt;/h1&gt;&lt;p&gt;Lorem ipsum dolor sit amet, consectetur adipisicing elit, sed do eiusmod tempor incididunt ut labore et dolore magna aliqua.&lt;/p&gt;" style="text;html=1;whiteSpace=wrap;overflow=hidden;rounded=0;" vertex="1" parent="1">
          <mxGeometry x="320" y="1250" width="200" height="220" as="geometry" />
        </mxCell>
        <mxCell id="380pyfvnN0EU_XqH2vTF-36" value="" style="verticalLabelPosition=bottom;verticalAlign=top;html=1;shape=mxgraph.basic.diag_round_rect;dx=6;whiteSpace=wrap;" vertex="1" parent="1">
          <mxGeometry x="570" y="1169" width="220" height="321" as="geometry" />
        </mxCell>
        <mxCell id="380pyfvnN0EU_XqH2vTF-37" value="" style="ellipse;whiteSpace=wrap;html=1;aspect=fixed;" vertex="1" parent="1">
          <mxGeometry x="580" y="1180" width="50" height="50" as="geometry" />
        </mxCell>
        <mxCell id="380pyfvnN0EU_XqH2vTF-38" value="Text" style="text;html=1;whiteSpace=wrap;strokeColor=none;fillColor=none;align=right;verticalAlign=middle;rounded=0;fontSize=30;labelPosition=left;verticalLabelPosition=middle;" vertex="1" parent="1">
          <mxGeometry x="700" y="1180" width="70" height="50" as="geometry" />
        </mxCell>
        <mxCell id="380pyfvnN0EU_XqH2vTF-39" value="&lt;h1 style=&quot;margin-top: 0px;&quot;&gt;Heading&lt;/h1&gt;&lt;p&gt;Lorem ipsum dolor sit amet, consectetur adipisicing elit, sed do eiusmod tempor incididunt ut labore et dolore magna aliqua.&lt;/p&gt;" style="text;html=1;whiteSpace=wrap;overflow=hidden;rounded=0;" vertex="1" parent="1">
          <mxGeometry x="580" y="1250" width="200" height="220" as="geometry" />
        </mxCell>
        <mxCell id="380pyfvnN0EU_XqH2vTF-41" value="" style="verticalLabelPosition=bottom;verticalAlign=top;html=1;shape=mxgraph.basic.patternFillRect;fillStyle=hor;step=5;fillStrokeWidth=0.2;fillStrokeColor=#dddddd;" vertex="1" parent="1">
          <mxGeometry y="1520" width="830" height="470" as="geometry" />
        </mxCell>
        <mxCell id="380pyfvnN0EU_XqH2vTF-42" value="" style="verticalLabelPosition=bottom;verticalAlign=top;html=1;shape=mxgraph.basic.patternFillRect;fillStyle=diagGrid;step=5;fillStrokeWidth=0.2;fillStrokeColor=#dddddd;" vertex="1" parent="1">
          <mxGeometry x="30" y="1574" width="310" height="360" as="geometry" />
        </mxCell>
        <mxCell id="380pyfvnN0EU_XqH2vTF-43" value="&lt;h1 style=&quot;margin-top: 0px;&quot;&gt;Heading&lt;/h1&gt;&lt;p&gt;Lorem ipsum dolor sit amet, consectetur adipisicing elit, sed do eiusmod tempor incididunt ut labore et dolore magna aliqua.&lt;/p&gt;" style="text;html=1;whiteSpace=wrap;overflow=hidden;rounded=0;" vertex="1" parent="1">
          <mxGeometry x="420" y="1570" width="360" height="340" as="geometry" />
        </mxCell>
        <mxCell id="380pyfvnN0EU_XqH2vTF-44" value="" style="verticalLabelPosition=bottom;verticalAlign=top;html=1;shape=mxgraph.basic.frame;dx=10;whiteSpace=wrap;" vertex="1" parent="1">
          <mxGeometry x="55" y="1644" width="255" height="50" as="geometry" />
        </mxCell>
        <mxCell id="380pyfvnN0EU_XqH2vTF-45" value="" style="verticalLabelPosition=bottom;verticalAlign=top;html=1;shape=mxgraph.basic.frame;dx=10;whiteSpace=wrap;" vertex="1" parent="1">
          <mxGeometry x="55" y="1744" width="255" height="50" as="geometry" />
        </mxCell>
        <mxCell id="380pyfvnN0EU_XqH2vTF-46" value="Text" style="text;html=1;whiteSpace=wrap;strokeColor=none;fillColor=none;align=center;verticalAlign=middle;rounded=0;fontSize=40;" vertex="1" parent="1">
          <mxGeometry x="155" y="1594" width="60" height="30" as="geometry" />
        </mxCell>
        <mxCell id="380pyfvnN0EU_XqH2vTF-47" value="" style="verticalLabelPosition=bottom;verticalAlign=top;html=1;shape=mxgraph.basic.rounded_frame;dx=10;whiteSpace=wrap;" vertex="1" parent="1">
          <mxGeometry x="135" y="1824" width="100" height="60" as="geometry" />
        </mxCell>
        <mxCell id="380pyfvnN0EU_XqH2vTF-48" value="" style="rounded=0;whiteSpace=wrap;html=1;" vertex="1" parent="1">
          <mxGeometry y="1990" width="830" height="100" as="geometry" />
        </mxCell>
        <mxCell id="380pyfvnN0EU_XqH2vTF-50" value="Text" style="text;html=1;whiteSpace=wrap;strokeColor=none;fillColor=none;align=right;verticalAlign=middle;rounded=0;fontSize=33;labelPosition=left;verticalLabelPosition=middle;" vertex="1" parent="1">
          <mxGeometry x="90" y="2010" width="230" height="60" as="geometry" />
        </mxCell>
        <mxCell id="380pyfvnN0EU_XqH2vTF-51" value="" style="ellipse;whiteSpace=wrap;html=1;aspect=fixed;" vertex="1" parent="1">
          <mxGeometry x="730" y="2000" width="80" height="80" as="geometry" />
        </mxCell>
        <mxCell id="380pyfvnN0EU_XqH2vTF-52" value="Text" style="text;html=1;whiteSpace=wrap;strokeColor=none;fillColor=none;align=center;verticalAlign=middle;rounded=0;fontSize=26;" vertex="1" parent="1">
          <mxGeometry x="650" y="2025" width="60" height="30" as="geometry" />
        </mxCell>
      </root>
    </mxGraphModel>
  </diagram>
</mxfile>
